<svg xmlns="http://www.w3.org/2000/svg" width="31.981" height="27.228" viewBox="0 0 471 401">
  <defs>
    <style>
      .cls-1 {
        fill: #fe6a6a;
      }

      .cls-1, .cls-2 {
        fill-rule: evenodd;
      }

      .cls-2 {
        fill: #00ca72;
      }
    </style>
  </defs>
  <path id="Rettangolo_1" data-name="Rettangolo 1" class="cls-1" d="M10.851,287.868L155.392,37.611A75,75,0,0,1,257.848,10.176l0.866,0.5a75,75,0,0,1,27.435,102.456L141.608,363.39A75,75,0,0,1,39.152,390.824l-0.866-.5A75,75,0,0,1,10.851,287.868Z"/>
  <path id="Rettangolo_1-2" data-name="Rettangolo 1" class="cls-2" d="M184.851,287.868L329.392,37.611A75,75,0,0,1,431.848,10.176l0.866,0.5a75,75,0,0,1,27.435,102.456L315.608,363.39a75,75,0,0,1-102.456,27.434l-0.866-.5A75,75,0,0,1,184.851,287.868Z"/>
</svg>
